Brought to you by http://bitbitz.net

Come and join us at the home of BBnRG, where you will get exclusive releases just for bitbitz members.

So come and join us while you can.



Another Fine Release Brought to you from - http://bitbitz.net 



===================================================================================
                      RANGO (2011) DVDSCR x264-BBnRG
===================================================================================
                                                                                               
 ___     _                    ___       __    
| _ \___| |___ __ _ ___ ___  |_ _|_ _  / _|___
|   / -_) / -_) _` (_-</ -_)  | || ' \|  _/ _ \
|_|_\___|_\___\__,_/__/\___| |___|_||_|_| \___/
===================================================================================
 


Format                           : MPEG-4
Format profile                   : Base Media / Version 2
Codec ID                         : mp42
File size                        : 400 MiB
Duration                         : 1h 47mn
Overall bit rate                 : 522 Kbps

Video
ID                               : 1
Format                           : AVC
Format/Info                      : Advanced Video Codec
Format profile                   : Main@L2.1
Format settings, CABAC           : Yes
Format settings, ReFrames        : 4 frames
Codec ID                         : avc1
Codec ID/Info                    : Advanced Video Coding
Duration                         : 1h 47mn
Bit rate mode                    : Variable
Bit rate                         : 357 Kbps
Width                            : 640 pixels
Height                           : 272 pixels
Display aspect ratio             : 2.35:1
Frame rate mode                  : Variable
Frame rate                       : 23.976 fps
Minimum frame rate               : 11.989 fps
Maximum frame rate               : 348.837 fps
Color space                      : YUV
Chroma subsampling               : 4:2:0
Bit depth                        : 8 bits
Scan type                        : Progressive
Bits/(Pixel*Frame)               : 0.086
Stream size                      : 274 MiB (68%)
Writing library                  : x264 core 112

Audio
ID                               : 2
Format                           : AAC
Format/Info                      : Advanced Audio Codec
Format profile                   : LC
Codec ID                         : 40
Duration                         : 1h 47mn
Bit rate mode                    : Variable
Bit rate                         : 160 Kbps
Maximum bit rate                 : 230 Kbps
Channel(s)                       : 2 channels
Channel positions                : Front: L R
Sampling rate                    : 48.0 KHz
Compression mode                 : Lossy
Stream size                      : 123 MiB (31%)
 

 ___     _                    ___                 _      _   _          
| _ \___| |___ __ _ ___ ___  |   \ ___ ___ __ _ _(_)_ __| |_(_)___ _ _  
|   / -_) / -_) _` (_-</ -_) | |) / -_|_-</ _| '_| | '_ \  _| / _ \ ' \
|_|_\___|_\___\__,_/__/\___| |___/\___/__/\__|_| |_| .__/\__|_\___/_||_|
                                                   |_|                  
===================================================================================
 
Encoder: RANDom

IMDB: http://www.imdb.com/title/tt1192628/

Plot:  Rango is an ordinary chameleon who accidentally winds up in the town of Dirt, a lawless
outpost in the Wild West in desperate need of a new sheriff.  
 
 
 
  ___                     _  _     _          
 / __|_ _ ___ _  _ _ __  | \| |___| |_ ___ ___
| (_ | '_/ _ \ || | '_ \ | .` / _ \  _/ -_|_-<
 \___|_| \___/\_,_| .__/ |_|\_\___/\__\___/__/
                  |_|                        
===================================================================================
 
Source Used: DVDSCR - 3LT0N
 
Release Notes:
Here we are with another good release, i took the source from 3LT0N (THANKS). I ran it through
some filters, just to touched it up. I then did some magic and shrank the file size. The quality
was preserved whilst shrinking the file and the quality is good considering the file size. Enjoy.


If you have anything you can offer that could be of use please visit our home: BitBitz.net


RANDom: Presenting Another Great Quality Release At A Small File Size.


For more great releases like this and exclusive releases please visit: BitBitz.net
 
 
 
 ___     _                     ___            _ _ _        
| _ \___| |___ __ _ ___ ___   / _ \ _  _ __ _| (_) |_ _  _
|   / -_) / -_) _` (_-</ -_) | (_) | || / _` | | |  _| || |
|_|_\___|_\___\__,_/__/\___|  \__\_\\_,_\__,_|_|_|\__|\_, |
                                                      |__/
===================================================================================
 
Screenshots:
 
http://img11.imageshack.us/img11/4006/screen2011052711h56m21s.jpg 
http://img806.imageshack.us/img806/4307/screen2011052711h56m33s.jpg 
http://img850.imageshack.us/img850/9207/screen2011052711h56m48s.jpg 
http://img18.imageshack.us/img18/120/screen2011052711h56m54s.jpg 
http://img3.imageshack.us/img3/4996/screen2011052711h57m13s.jpg 
http://img171.imageshack.us/img171/9592/screen2011052711h57m27s.jpg
